<?xml version="1.0" encoding="UTF-8"?><svg id="Layer_2" xmlns="http://www.w3.org/2000/svg" viewBox="0 0 57.92 65.67"><defs><style>.cls-1{fill:#fff;}</style></defs><g id="Layer_1-2"><g><path class="cls-1" d="M56.18,65.17c-.51,0-1.24-.44-1.24-1.24,0-14.33-11.66-25.98-25.98-25.98S2.98,49.6,2.98,63.93c0,.51-.44,1.24-1.24,1.24-.51,0-1.24-.44-1.24-1.24,0-11.79,7.03-22.21,17.92-26.57l2.56-1.02-2.32-1.49c-5.27-3.37-8.42-9.22-8.42-15.63C10.24,8.9,18.64,.5,28.96,.5s18.72,8.4,18.72,18.72c0,6.41-3.15,12.25-8.42,15.63l-2.32,1.49,2.56,1.02c11.09,4.44,18.12,14.85,17.92,26.54,0,.61-.51,1.26-1.24,1.26ZM28.96,3.2c-8.84,0-16.02,7.19-16.02,16.02s7.19,16.02,16.02,16.02,16.02-7.19,16.02-16.02S37.8,3.2,28.96,3.2Z"/><path class="cls-1" d="M56.18,65.67c-.73,0-1.74-.6-1.74-1.74,0-14.05-11.43-25.48-25.48-25.48S3.48,49.88,3.48,63.93c0,.73-.6,1.74-1.74,1.74-.73,0-1.74-.6-1.74-1.74,0-11.99,7.16-22.6,18.23-27.03l1.66-.66-1.5-.96c-5.42-3.47-8.65-9.47-8.65-16.05C9.74,8.62,18.36,0,28.96,0s19.22,8.62,19.22,19.22c0,6.58-3.23,12.58-8.65,16.05l-1.5,.96,1.66,.66c11.28,4.51,18.44,15.12,18.24,27.02,0,.84-.7,1.75-1.74,1.75Zm-27.22-28.22c14.6,0,26.48,11.88,26.48,26.48,0,.53,.52,.74,.74,.74,.46,0,.74-.44,.74-.76,.2-11.49-6.71-21.72-17.61-26.08l-3.46-1.38,3.14-2.01c5.13-3.28,8.19-8.97,8.19-15.21C47.18,9.17,39.01,1,28.96,1S10.74,9.17,10.74,19.22c0,6.24,3.06,11.92,8.19,15.21l3.14,2.01-3.46,1.38C7.91,42.1,1,52.35,1,63.93c0,.53,.52,.74,.74,.74,.53,0,.74-.52,.74-.74,0-14.6,11.88-26.48,26.48-26.48Zm0-1.7c-9.11,0-16.52-7.41-16.52-16.52S19.85,2.7,28.96,2.7s16.52,7.41,16.52,16.52-7.41,16.52-16.52,16.52Zm0-32.05c-8.56,0-15.52,6.96-15.52,15.52s6.96,15.52,15.52,15.52,15.52-6.96,15.52-15.52S37.52,3.7,28.96,3.7Z"/></g></g></svg>