<?xml version="1.0" encoding="UTF-8"?><svg id="Layer_2" xmlns="http://www.w3.org/2000/svg" viewBox="0 0 61.73 65.75"><defs><style>.cls-1{fill:#fff;}</style></defs><g id="Layer_1-2"><g><path class="cls-1" d="M57.32,3.25h-4.74V1.5c0-.83-.67-1.5-1.5-1.5h-6.03c-.83,0-1.5,.67-1.5,1.5v1.75h-8.18V1.5c0-.83-.67-1.5-1.5-1.5h-6.03c-.83,0-1.5,.67-1.5,1.5v1.75h-8.18V1.5c0-.83-.67-1.5-1.5-1.5h-6.03c-.83,0-1.5,.67-1.5,1.5v1.75H4.4C1.98,3.25,0,5.22,0,7.65V61.35c0,2.43,1.98,4.4,4.4,4.4H48.84c.2,0,.41-.04,.61-.13l.11-.07c.14-.08,.25-.16,.33-.24l11.48-13.33c.06-.08,.1-.15,.12-.19,.04-.07,.1-.16,.15-.27,.04-.11,.05-.2,.07-.3l.03-.15V7.65c0-2.43-1.98-4.4-4.4-4.4ZM12.14,9.81V3h3.03v6.81h-3.03Zm17.21,0V3h3.03v6.81h-3.03Zm17.21,0V3h3.03v6.81h-3.03ZM3,7.65c0-.77,.63-1.4,1.4-1.4h4.74v5.07c0,.83,.67,1.5,1.5,1.5h6.03c.83,0,1.5-.67,1.5-1.5V6.25h8.18v5.07c0,.83,.67,1.5,1.5,1.5h6.03c.83,0,1.5-.67,1.5-1.5V6.25h8.18v5.07c0,.83,.67,1.5,1.5,1.5h6.03c.83,0,1.5-.67,1.5-1.5V6.25h4.74c.77,0,1.4,.63,1.4,1.4v10.5H3V7.65Zm55.73,13.5v28.36h-6.98c-2.43,0-4.4,1.97-4.4,4.4v8.84H4.4c-.77,0-1.4-.63-1.4-1.4V21.15H58.73Zm-8.39,32.76c0-.77,.63-1.4,1.4-1.4h5.21l-6.62,7.7v-6.29Z"/><path class="cls-1" d="M35.64,30.22h-9.56v9.56h9.56v-9.56Zm-2,7.56h-5.56v-5.56h5.56v5.56Z"/><path class="cls-1" d="M50.78,30.22h-9.56v9.56h9.56v-9.56Zm-2,7.56h-5.56v-5.56h5.56v5.56Z"/><path class="cls-1" d="M20.5,30.22H10.94v9.56h9.56v-9.56Zm-2,7.56h-5.56v-5.56h5.56v5.56Z"/><path class="cls-1" d="M35.64,43.22h-9.56v9.56h9.56v-9.56Zm-2,7.56h-5.56v-5.56h5.56v5.56Z"/><path class="cls-1" d="M20.5,43.22H10.94v9.56h9.56v-9.56Zm-2,7.56h-5.56v-5.56h5.56v5.56Z"/></g></g></svg>