<?xml version="1.0" encoding="UTF-8"?><svg id="Layer_2" xmlns="http://www.w3.org/2000/svg" viewBox="0 0 65.56 69.7"><defs><style>.cls-1{fill:#fff;}</style></defs><g id="Layer_1-2"><path class="cls-1" d="M12.56,69.7c-2.97,0-5.96-.67-8.64-1.94-.36-.17-.63-.49-.75-.88-.11-.37-.07-.76,.11-1.09,.18-.34,.48-.58,.85-.69l.16-.06c3.93-1.64,6.73-5.27,7.3-9.49,.12-.7,.2-1.47,.23-2.23l.04-.88-.7-.54C4.23,46.64,.07,38.32,0,29.63,0,13.29,14.7,0,32.78,0s32.78,13.58,32.78,29.65-13.83,29.01-31.49,29.65l-.72,.03-.48,.53c-4.18,4.61-9.59,7.84-15.63,9.33-1.51,.34-3.07,.51-4.64,.52h-.03ZM32.78,2.87C16.29,2.87,2.87,14.88,2.87,29.65c.17,8.39,4.42,16.17,11.38,20.82,.33,.24,.55,.66,.56,1.1,.06,1.51-.04,3.03-.29,4.5-.5,2.91-1.78,5.64-3.69,7.89l-2.25,2.66,3.48,.14c.26,.01,.51,.02,.77,.02,1.39,0,2.78-.16,4.13-.46,5.69-1.55,10.72-4.71,14.54-9.13l.07-.08c.31-.45,.75-.68,1.22-.68,16.49,0,29.91-12.01,29.91-26.78S49.27,2.87,32.78,2.87Zm-12.54,34.48c-.79,0-1.43-.64-1.43-1.43s.64-1.43,1.43-1.43h25.08c.79,0,1.43,.64,1.43,1.43s-.64,1.43-1.43,1.43H20.24Zm0-12.54c-.79,0-1.43-.64-1.43-1.43s.64-1.43,1.43-1.43h25.08c.79,0,1.43,.64,1.43,1.43s-.64,1.43-1.43,1.43H20.24Z"/></g></svg>