<?xml version="1.0" encoding="utf-8"?>
<!-- Generator: Adobe Illustrator 26.3.1, SVG Export Plug-In . SVG Version: 6.00 Build 0)  -->
<svg version="1.1" id="Layer_2_00000036931477647995465330000002630976378643643577_"
	 xmlns="http://www.w3.org/2000/svg" xmlns:xlink="http://www.w3.org/1999/xlink" x="0px" y="0px" viewBox="0 0 61.7 67.4"
	 style="enable-background:new 0 0 61.7 67.4;" xml:space="preserve">
<style type="text/css">
	.st0{fill:#FFFFFF;}
</style>
<g id="Layer_1-2">
	<g transform="translate(0,-952.36218)">
		<g>
			<path class="st0" d="M40.2,1019.2c-0.7,0-1.3-0.6-1.3-1.3v-23.1H22.8v23.1c0,0.7-0.6,1.3-1.3,1.3H1.8c-0.7,0-1.3-0.6-1.3-1.3
				v-41.2c0-0.4,0.2-0.8,0.5-1l29.1-22.5c0.2-0.2,0.5-0.3,0.8-0.3s0.6,0.1,0.9,0.3l29,22.5c0.3,0.2,0.5,0.6,0.5,1v41.2
				c0,0.7-0.6,1.3-1.3,1.3L40.2,1019.2L40.2,1019.2z M40.2,992.2c0.7,0,1.3,0.6,1.3,1.3v23.1h17.1v-39.3l-27.8-21.5L3.1,977.3v39.3
				h17.1v-23.1c0-0.7,0.6-1.3,1.3-1.3L40.2,992.2L40.2,992.2z"/>
			<path class="st0" d="M59.9,1019.7H40.2c-1,0-1.8-0.9-1.8-1.8v-22.6H23.3v22.6c0,1-0.9,1.8-1.8,1.8H1.8c-0.9,0-1.8-0.9-1.8-1.8
				v-41.2c0-0.5,0.3-1.1,0.7-1.4l29.1-22.5c0.7-0.5,1.4-0.5,2.2,0L61,975.2c0.4,0.3,0.7,0.9,0.7,1.4v41.2
				C61.7,1018.9,60.9,1019.7,59.9,1019.7L59.9,1019.7z M22.3,994.4h17.1v23.6c0,0.4,0.4,0.8,0.8,0.8h19.7c0.4,0,0.8-0.4,0.8-0.8
				v-41.3c0-0.2-0.1-0.5-0.3-0.6l-29-22.5c-0.4-0.2-0.7-0.3-1,0L1.3,976c-0.2,0.1-0.3,0.4-0.3,0.6v41.2c0,0.4,0.4,0.8,0.8,0.8h19.7
				c0.4,0,0.8-0.4,0.8-0.8L22.3,994.4L22.3,994.4z M59.1,1017.1H41v-23.6c0-0.4-0.4-0.8-0.8-0.8H21.5c-0.4,0-0.8,0.4-0.8,0.8v23.6
				H2.6v-40.1l28.2-21.9l28.3,21.9C59.1,977.1,59.1,1017.1,59.1,1017.1z M42,1016.1h16.1v-38.6l-27.2-21.1L3.6,977.6v38.6h16.1
				v-22.6c0-1,0.9-1.8,1.8-1.8h18.8c0.9,0,1.8,0.9,1.8,1.8L42,1016.1L42,1016.1z"/>
		</g>
	</g>
</g>
</svg>
