<?xml version="1.0" encoding="UTF-8"?><svg id="Layer_2" xmlns="http://www.w3.org/2000/svg" viewBox="0 0 151.17 151.17"><defs><style>.cls-1{fill:#fff;}</style></defs><g id="Layer_1-2"><g><path class="cls-1" d="M0,81.21c.42,5.64,1.44,11.11,3.04,16.34l14.02-16.34H0Z"/><path class="cls-1" d="M8.93,111.68c2.62,4.83,5.75,9.34,9.33,13.46l14.51-13.46H8.93Z"/><polygon class="cls-1" points="36.38 101.34 53.71 94.31 28.79 86.3 13.91 101.34 36.38 101.34"/><polygon class="cls-1" points="50.96 68.94 28.91 75.58 50.96 82.23 69.97 75.58 50.96 68.94"/><path class="cls-1" d="M3.04,53.61c-1.59,5.24-2.62,10.71-3.04,16.35H17.06L3.04,53.61Z"/><path class="cls-1" d="M18.25,26.01c-3.57,4.13-6.7,8.65-9.33,13.48h23.85l-14.52-13.48Z"/><polygon class="cls-1" points="36.38 49.82 13.91 49.82 28.79 64.87 53.71 56.86 36.38 49.82"/><polygon class="cls-1" points="75.59 81.21 68.95 100.22 75.59 122.26 82.24 100.22 75.59 81.21"/><path class="cls-1" d="M81.22,151.17c5.64-.42,11.11-1.45,16.33-3.04l-16.33-14.01v17.05Z"/><path class="cls-1" d="M111.68,142.25c4.83-2.63,9.35-5.76,13.48-9.34l-13.48-14.51v23.85Z"/><polygon class="cls-1" points="86.31 122.39 101.35 137.26 101.35 114.79 94.32 97.46 86.31 122.39"/><path class="cls-1" d="M69.96,151.17v-17.05l-16.33,14.01c5.22,1.59,10.7,2.62,16.33,3.04Z"/><path class="cls-1" d="M39.5,142.25v-23.85l-13.48,14.52c4.13,3.57,8.65,6.7,13.48,9.33Z"/><polygon class="cls-1" points="56.87 97.46 49.83 114.79 49.83 137.26 64.88 122.39 56.87 97.46"/><polygon class="cls-1" points="100.23 68.94 81.22 75.58 100.23 82.23 122.27 75.58 100.23 68.94"/><path class="cls-1" d="M151.17,69.96c-.41-5.64-1.44-11.12-3.03-16.35l-14.02,16.35h17.05Z"/><path class="cls-1" d="M142.26,39.49c-2.63-4.83-5.77-9.35-9.33-13.48l-14.52,13.48h23.85Z"/><polygon class="cls-1" points="114.8 49.82 97.47 56.86 122.4 64.87 137.27 49.82 114.8 49.82"/><path class="cls-1" d="M148.14,97.55c1.59-5.24,2.62-10.7,3.03-16.34h-17.05l14.02,16.34Z"/><path class="cls-1" d="M132.92,125.15c3.57-4.13,6.7-8.64,9.33-13.46h-23.83l14.51,13.46Z"/><polygon class="cls-1" points="137.27 101.34 122.4 86.3 97.47 94.31 114.8 101.34 137.27 101.34"/><polygon class="cls-1" points="75.59 69.96 82.24 50.95 75.59 28.9 68.95 50.95 75.59 69.96"/><path class="cls-1" d="M69.96,0c-5.64,.41-11.11,1.44-16.34,3.03l16.34,14.02V0Z"/><path class="cls-1" d="M39.5,8.91c-4.83,2.63-9.35,5.77-13.48,9.33l13.48,14.53V8.91Z"/><polygon class="cls-1" points="64.88 28.78 49.83 13.9 49.83 36.37 56.87 53.7 64.88 28.78"/><path class="cls-1" d="M81.22,0V17.05L97.56,3.03c-5.22-1.59-10.7-2.62-16.34-3.03Z"/><path class="cls-1" d="M111.68,8.91v23.86l13.48-14.52c-4.13-3.57-8.65-6.71-13.48-9.34Z"/><polygon class="cls-1" points="94.32 53.7 101.35 36.37 101.35 13.9 86.31 28.78 94.32 53.7"/></g></g></svg>